<svg width="282" height="282" viewBox="0 0 282 282" fill="none" xmlns="http://www.w3.org/2000/svg">
<g opacity="0.6">
<path d="M258.75 257.367H171.682C167.988 257.367 165.041 254.335 165.253 250.725L174.883 86.672C175.081 83.3444 177.901 80.75 181.313 80.75H266.674C270.34 80.75 273.273 83.7392 273.104 87.3206L265.18 251.374C265.01 254.73 262.19 257.367 258.75 257.367Z" fill="#292C56"/>
<path d="M253.758 252.008H174.136C170.526 252.008 167.664 248.977 167.861 245.367L176.702 91.0001C176.899 87.6725 179.649 85.0781 182.976 85.0781H261.034C264.615 85.0781 267.478 88.0673 267.309 91.6487L260.033 246.016C259.878 249.371 257.114 252.008 253.758 252.008Z" fill="white"/>
<path d="M253.758 252.574H174.135C170.201 252.574 167.071 249.274 167.297 245.34L176.137 90.9734C176.349 87.3497 179.352 84.5156 182.976 84.5156H261.033C264.939 84.5156 268.055 87.7727 267.872 91.6784L260.596 246.045C260.427 249.711 257.424 252.574 253.758 252.574ZM182.976 85.6436C179.944 85.6436 177.449 88.0124 177.265 91.0298L168.425 245.397C168.241 248.682 170.85 251.446 174.135 251.446H253.758C256.818 251.446 259.327 249.049 259.468 246.003L266.744 91.6361C266.899 88.379 264.305 85.6577 261.033 85.6577H182.976V85.6436Z" fill="#292C56"/>
<path d="M271.622 125.741C269.634 125.628 268.576 124.106 268.661 122.611L269.436 108.694C269.521 107.059 270.931 105.818 272.553 105.903C274.541 106.015 275.598 107.538 275.514 109.033L274.738 122.949C274.653 124.585 273.258 125.826 271.622 125.741Z" fill="white"/>
<path d="M271.792 126.306C269.536 126.306 268 124.558 268.098 122.584L268.874 108.667C268.987 106.735 270.65 105.241 272.582 105.354C274.81 105.481 276.178 107.201 276.065 109.076L275.289 122.993C275.205 124.854 273.64 126.306 271.792 126.306ZM272.399 106.468C271.144 106.468 270.086 107.455 270.016 108.724L269.24 122.64C269.17 123.825 269.988 125.08 271.666 125.178C273.217 125.178 274.119 124.064 274.189 122.922L274.965 109.006C275.035 107.581 273.922 106.468 272.399 106.468Z" fill="#292C56"/>
<path d="M270.298 149.401C268.31 149.289 267.252 147.766 267.337 146.271L268.112 132.354C268.197 130.719 269.607 129.478 271.228 129.563C273.216 129.675 274.274 131.198 274.189 132.693L273.414 146.61C273.329 148.245 271.933 149.486 270.298 149.401Z" fill="white"/>
<path d="M270.467 149.966C268.141 149.966 266.675 148.148 266.787 146.244L267.563 132.327C267.676 130.382 269.339 128.901 271.271 129.014C273.499 129.141 274.867 130.847 274.754 132.736L273.978 146.653C273.88 148.514 272.315 149.966 270.467 149.966ZM270.326 148.838C271.652 148.895 272.78 147.894 272.85 146.582L273.626 132.666C273.696 131.397 272.808 130.226 271.201 130.128C269.903 130.043 268.747 131.044 268.677 132.384L267.901 146.3C267.831 147.499 268.649 148.74 270.326 148.838Z" fill="#292C56"/>
<path d="M23.2937 201.363H110.601C114.309 201.363 117.256 198.331 117.045 194.722L107.386 30.6681C107.189 27.3405 104.369 24.7461 100.942 24.7461H15.3413C11.6612 24.7461 8.7284 27.7353 8.8976 31.3167L16.85 195.37C17.0051 198.726 19.8533 201.363 23.2937 201.363Z" fill="#292C56"/>
<path d="M28.2428 196.004H107.865C111.475 196.004 114.337 192.973 114.14 189.363L105.299 34.9962C105.102 31.6686 102.352 29.0742 99.0248 29.0742H20.9672C17.3858 29.0742 14.5235 32.0634 14.6927 35.6448L21.9683 190.012C22.1234 193.367 24.887 196.004 28.2428 196.004Z" fill="white"/>
<path d="M10.3792 69.7412C12.3673 69.6284 13.4248 68.1056 13.3402 66.611L12.5506 52.6943C12.466 51.0587 11.056 49.8179 9.43446 49.9025C7.44636 50.0153 6.38886 51.5381 6.47346 53.0327L7.24896 66.9494C7.34766 68.585 8.74356 69.8258 10.3792 69.7412Z" fill="white"/>
<path d="M10.2095 70.3034C8.36237 70.3034 6.79727 68.8511 6.69857 66.9758L5.92307 53.0591C5.82437 51.1979 7.16387 49.4636 9.40577 49.3367C11.3798 49.238 13.0154 50.7326 13.1141 52.6502L13.8896 66.5669C14.0024 68.555 12.4796 70.3034 10.2095 70.3034ZM9.60317 50.4647C8.02397 50.4647 6.96647 51.6209 7.03697 53.0027L7.81247 66.9194C7.88297 68.0756 8.78537 69.1754 10.3364 69.1754C12.0143 69.0767 12.8321 67.8359 12.7616 66.6374L11.9861 52.7207C11.9156 51.4517 10.8581 50.4647 9.60317 50.4647Z" fill="#292C56"/>
<path d="M11.7049 93.3975C13.693 93.2847 14.7505 91.7619 14.6659 90.2673L13.8904 76.3506C13.8058 74.715 12.3958 73.4742 10.7743 73.5588C8.7862 73.6716 7.7287 75.1944 7.8133 76.689L8.5888 90.6057C8.6734 92.2413 10.0693 93.4821 11.7049 93.3975Z" fill="white"/>
<path d="M11.5351 93.961C9.68797 93.961 8.12287 92.5087 8.02417 90.6334L7.24867 76.7167C7.13587 74.8414 8.50357 73.1212 10.7314 72.9943C12.6631 72.8815 14.341 74.362 14.4397 76.3078L15.2293 90.2386C15.3421 92.2126 13.8052 93.961 11.5351 93.961ZM10.9288 74.1223C9.34957 74.1223 8.29207 75.2926 8.36257 76.6603L9.13807 90.577C9.20857 91.7473 10.111 92.833 11.662 92.833C13.3399 92.7343 14.1577 91.4935 14.0872 90.295L13.3117 76.3783C13.2412 75.0952 12.1696 74.1223 10.9288 74.1223Z" fill="#292C56"/>
<path d="M203.296 128.352C191.593 128.563 185.262 132.173 181.624 135.571C177.38 139.533 176.337 146.823 164.38 154.112C161.687 149.699 159.008 145.272 156.315 140.858C149.815 145.187 143.315 149.53 136.814 153.858C138.577 159.329 141.411 167 145.909 175.699C151.845 187.149 154.806 192.873 159.431 194.946C169.456 199.444 186.757 187.614 202.591 167.38C202.831 154.366 203.07 141.352 203.296 128.352Z" fill="#60AFBD"/>
<path d="M36.9979 127.59C36.9979 127.59 28.3264 142.804 28.0585 154.239C27.7906 165.674 36.9979 196.003 36.9979 196.003H69.1177C68.3704 187.064 67.6231 178.124 66.8617 169.185C68.9062 178.124 70.9648 187.064 73.0093 196.003C84.9238 195.975 96.8383 195.961 108.753 195.933C100.688 173.147 92.6365 150.361 84.5713 127.59H36.9979Z" fill="#60AFBD"/>
<path d="M60.6589 40.256C60.6589 40.256 55.6252 39.7907 53.2705 47.0381C50.9158 54.2855 40.5664 76.5212 40.5664 76.5212C40.5664 76.5212 77.6071 80.8922 77.6917 80.5679C77.7763 80.2295 78.4108 48.7442 78.4108 48.7442L60.6589 40.256Z" fill="#292C56"/>
<path d="M73.463 76.0273C79.1735 77.4232 82.769 79.8061 84.8981 81.5686C90.8342 86.4754 91.8212 91.8757 100.436 110.516C100.845 111.418 104.046 118.313 104.046 118.313C111.152 121.317 118.259 124.32 125.365 127.323C125.196 131.398 125.013 135.473 124.843 139.548C120.063 139.322 113.126 138.772 104.835 137.278C96.7844 135.825 92.7518 135.092 90.0023 133.569C78.0596 126.971 75.3665 110.234 73.7309 100.152C72.8567 94.5829 72.1094 86.2639 73.463 76.0273Z" fill="white"/>
<path d="M124.857 140.113C122.248 140.113 113.055 139.337 104.75 137.829C96.6429 136.362 92.5821 135.629 89.748 134.064C77.5656 127.324 74.8302 110.376 73.1946 100.252C71.9115 92.3279 71.8128 84.1499 72.9126 75.9578C72.9549 75.6194 73.2933 75.4079 73.6035 75.4784C78.1437 76.5923 82.0776 78.4958 85.2642 81.1325C91.3272 86.1521 92.2719 91.496 100.957 110.277L104.482 117.877L125.604 126.802C125.816 126.887 125.957 127.113 125.943 127.352L125.421 139.577C125.407 139.887 125.153 140.113 124.857 140.113ZM73.9419 76.7333C72.9549 84.6152 73.0818 92.4548 74.3085 100.069C75.9159 109.995 78.5949 126.605 90.2979 133.077C92.9769 134.557 96.9813 135.276 104.962 136.729C111.363 137.885 117.877 138.632 124.321 138.971L124.801 127.705L103.834 118.85C103.707 118.794 103.594 118.695 103.538 118.568L99.9282 110.771C91.2849 92.0741 90.3402 86.8289 84.531 82.0208C81.6264 79.5956 78.0591 77.819 73.9419 76.7333Z" fill="#292C56"/>
<path d="M57.7137 70.9065C43.9239 67.5648 37.2969 69.8913 33.8565 73.2471C33.8565 73.2471 27.4974 79.4652 37.0008 127.588H84.6024C84.6024 127.588 89.2695 86.628 86.1675 80.7483C83.0514 74.8686 57.7137 70.9065 57.7137 70.9065Z" fill="white"/>
<path d="M84.6011 128.154H36.9995C36.7316 128.154 36.4919 127.956 36.4496 127.702C27.0026 79.8328 33.1925 73.1071 33.4604 72.8533C38.0147 68.3977 46.2209 67.5517 57.8252 70.3576C63.8177 71.3023 83.7974 75.067 86.6597 80.4814C89.804 86.4457 85.3484 125.968 85.1651 127.646C85.1228 127.942 84.8831 128.154 84.6011 128.154ZM37.4648 127.026H84.0935C85.7009 112.77 88.0274 85.4869 85.6586 81.0031C82.7399 75.4618 57.6419 71.4715 57.5855 71.4574C46.3619 68.7361 38.5223 69.4834 34.25 73.657C34.2077 73.7134 28.3703 80.707 37.4648 127.026Z" fill="#292C56"/>
<path d="M61.4207 77.7645L61.1246 77.7222C58.2764 77.271 56.3306 74.5779 56.7818 71.7297L58.8545 58.8141C59.3057 55.9659 61.9988 54.0201 64.847 54.4713L65.1431 54.5136C67.9913 54.9648 69.9371 57.6579 69.4859 60.5061L67.4132 73.4217C66.962 76.2699 64.283 78.2157 61.4207 77.7645Z" fill="white"/>
<path d="M62.2664 78.3837C58.2197 78.3837 55.6958 75.0279 56.2316 71.6298L58.3043 58.7142C58.8119 55.5558 61.7729 53.3985 64.9454 53.9061L65.2415 53.9484C68.3999 54.456 70.5572 57.417 70.0496 60.5895L67.9769 73.5051C67.5116 76.3815 65.0441 78.3837 62.2664 78.3837ZM61.5191 77.1993C64.0571 77.6082 66.4541 75.8738 66.863 73.3358L68.9357 60.4203C69.3446 57.8682 67.6103 55.4853 65.0723 55.0764L64.7762 55.0341C62.2241 54.6252 59.8412 56.3595 59.4323 58.8975L57.3596 71.8131C56.9507 74.3652 58.685 76.7481 61.223 77.157L61.5191 77.1993Z" fill="#292C56"/>
<path d="M75.1243 53.6927C75.1807 52.0148 74.5603 50.3792 73.4182 49.1525C72.3043 47.954 70.6546 46.6427 68.4127 45.9941C67.3975 45.698 65.1274 45.0635 62.5189 45.9659C62.392 46.0082 59.8258 46.9388 58.303 49.0961C57.7108 49.928 57.3301 50.9009 57.1186 51.9584C56.1598 51.7892 55.2292 52.0571 54.6652 52.748C53.2411 54.5105 55.0741 57.5561 57.6544 57.7958C58.5568 60.3902 59.8117 62.0822 61.405 63.3512C63.1393 64.7471 66.199 66.7352 69.4561 66.7352C74.0668 66.7493 74.8987 61.067 75.1243 53.6927Z" fill="white"/>
<path d="M69.4715 67.3126C66.1439 67.3126 63.0701 65.4091 61.0679 63.8158C59.3336 62.434 58.121 60.6715 57.2468 58.3168C54.455 57.781 52.5515 54.4534 54.2294 52.3948C54.7934 51.6898 55.6958 51.3232 56.6828 51.3514C56.9225 50.3926 57.3173 49.5325 57.839 48.7711C59.4746 46.4446 62.21 45.4717 62.3228 45.4294C65.1287 44.4424 67.5398 45.1474 68.5691 45.4435C70.5431 46.0075 72.3056 47.1355 73.8284 48.757C75.0833 50.1106 75.746 51.859 75.6896 53.692C75.5204 59.4307 75.182 67.3126 69.4715 67.3126ZM54.9485 55.1584C55.3433 56.1031 56.3585 57.1183 57.7262 57.2593C57.9518 57.2734 58.1351 57.4285 58.2056 57.64C59.0093 59.9524 60.1514 61.6303 61.787 62.9416C63.9302 64.6618 66.7361 66.1987 69.4856 66.1987C73.4054 66.1987 74.336 61.4047 74.5757 53.6779C74.618 52.141 74.0681 50.6746 73.0247 49.5466C71.6429 48.0661 70.0496 47.0509 68.2871 46.5433C67.3565 46.2754 65.1992 45.655 62.7317 46.5151C62.7035 46.5292 60.2219 47.4034 58.7978 49.4479C58.2761 50.1952 57.9095 51.0835 57.7121 52.0987C57.6557 52.3948 57.3596 52.5922 57.0635 52.5499C55.3433 52.2397 54.2717 53.5369 54.9485 55.1584Z" fill="#292C56"/>
<path d="M61.4199 63.3672C61.4199 63.3672 63.6054 69.2328 68.0046 69.684L68.484 66.6948C68.4981 66.7089 63.972 66.3141 61.4199 63.3672Z" fill="#292C56"/>
<path d="M57.135 51.9589C57.135 51.9589 61.4073 56.0338 66.3705 47.1226C66.3705 47.1226 71.7849 46.2343 69.6417 54.0034L77.7915 55.1455C77.7915 55.1455 79.4553 48.3916 77.439 44.4013C75.4227 40.411 68.8803 42.4273 68.8803 42.4273C68.8803 42.4273 63.2403 38.7895 58.7283 40.8763C54.2163 42.9631 54.6816 52.7626 54.6816 52.7626C54.6816 52.7626 55.866 51.2539 57.135 51.9589Z" fill="#292C56"/>
<path d="M218.409 134.033L218.705 134.047C221.581 134.23 224.077 132.044 224.26 129.168L225.106 116.111C225.289 113.235 223.104 110.739 220.227 110.556L219.931 110.542C217.055 110.359 214.559 112.544 214.376 115.421L213.53 128.477C213.333 131.368 215.518 133.849 218.409 134.033Z" fill="white"/>
<path d="M219.044 134.625C215.166 134.625 212.755 131.622 212.953 128.435L213.799 115.379C214.01 112.178 216.76 109.767 219.96 109.964L220.256 109.979C223.457 110.19 225.868 112.94 225.671 116.14L224.825 129.197C224.627 132.271 222.075 134.625 219.044 134.625ZM218.734 133.497C221.314 133.667 223.528 131.721 223.697 129.14L224.543 116.084C224.712 113.504 222.766 111.29 220.186 111.121L219.89 111.107C217.324 110.937 215.096 112.883 214.927 115.463L214.081 128.52C213.911 131.086 215.857 133.314 218.438 133.483L218.734 133.497Z" fill="#292C56"/>
<path d="M210.36 107.539C210.684 105.889 211.643 104.437 213.025 103.492C214.378 102.576 216.282 101.659 218.594 101.518C219.652 101.462 221.992 101.335 224.347 102.801C224.474 102.872 226.758 104.352 227.759 106.792C228.14 107.736 228.309 108.766 228.281 109.837C229.254 109.894 230.1 110.345 230.495 111.148C231.496 113.179 229.028 115.745 226.448 115.421C224.996 117.747 223.402 119.115 221.555 120.017C219.553 120.99 216.141 122.259 212.954 121.526C208.513 120.497 208.95 114.786 210.36 107.539Z" fill="white"/>
<path d="M214.998 122.302C207.384 122.302 208.357 114.913 209.824 107.426C210.176 105.621 211.205 104.056 212.728 103.027C214.575 101.772 216.549 101.081 218.594 100.954C219.665 100.898 222.161 100.743 224.685 102.322C224.784 102.392 227.251 103.958 228.323 106.58C228.675 107.426 228.859 108.357 228.887 109.344C231.086 109.781 232.116 112.065 230.663 114.081C229.789 115.308 228.252 116.055 226.8 115.999C225.432 118.1 223.853 119.538 221.865 120.511C220.032 121.385 217.55 122.302 214.998 122.302ZM210.923 107.638C209.443 115.223 209.302 120.102 213.123 120.962C216.211 121.667 219.609 120.342 221.357 119.496C223.247 118.579 224.727 117.183 226.025 115.111C226.137 114.927 226.363 114.815 226.574 114.857C228.675 115.125 230.833 113.024 230.043 111.402C229.761 110.824 229.098 110.444 228.295 110.401C227.984 110.387 227.759 110.133 227.759 109.823C227.787 108.794 227.632 107.849 227.279 107.003C226.335 104.719 224.177 103.337 224.093 103.281C221.879 101.899 219.637 102.026 218.664 102.082C216.831 102.195 215.041 102.83 213.377 103.958C210.952 105.593 210.923 108.075 210.923 107.638Z" fill="#292C56"/>
<path d="M221.583 120.004C221.583 120.004 218.157 125.249 213.758 124.713L213.955 121.682C213.955 121.696 218.453 122.302 221.583 120.004Z" fill="#292C56"/>
<path d="M75.2246 74.8828C75.2246 74.8828 86.2508 77.2516 89.1413 83.4838C92.0318 89.716 98.4755 106.269 98.4755 106.269L86.1521 111.374C86.5328 102.744 86.0675 94.1011 84.728 85.5565L75.2246 74.8828Z" fill="white"/>
<path d="M86.1516 111.939C85.8273 111.939 85.5735 111.671 85.5876 111.346C85.9683 102.774 85.4889 94.1162 84.1635 85.6421C84.1212 85.3319 84.3327 85.0499 84.6288 84.9935C84.939 84.9512 85.221 85.1627 85.2774 85.4588C86.5746 93.7214 87.0681 102.139 86.7438 110.5L97.7559 105.946C96.642 103.098 91.1853 89.2376 88.6332 83.6963C85.8978 77.7884 75.21 75.4337 75.1113 75.4055C74.8011 75.335 74.6178 75.0389 74.6742 74.7287C74.7306 74.4185 75.0408 74.2211 75.351 74.2916C75.8163 74.3903 86.6874 76.7873 89.6625 83.2028C92.5248 89.3786 98.9544 105.862 99.0108 106.031C99.1236 106.313 98.9826 106.637 98.7006 106.75C86.1798 111.981 86.3349 111.939 86.1516 111.939Z" fill="#292C56"/>
<path d="M130.904 118.344L130.749 100.451C130.749 100.451 123.36 93.161 115.634 92.8649H115.62C98.9534 90.905 83.3729 110.151 95.09 126.789C96.4718 128.749 98.0369 130.611 99.8135 132.345L131.285 163.28L131.003 129.652C135.881 133.67 143.129 130.131 143.072 123.899C143.03 117.653 135.726 114.24 130.904 118.344Z" fill="#60AFBD"/>
<path d="M223.542 127.998C223.542 127.998 191.761 126.475 186.572 133.314C181.369 140.167 191.775 199.358 191.775 199.358H251.235C257.213 149.021 261.034 141.844 256.17 134.964C249.345 125.305 231.523 126.842 223.542 127.998Z" fill="#60AFBD"/>
<path d="M191.76 199.359L174.121 252.023H211.43C213.516 244.197 215.617 236.358 217.704 228.532C218.071 236.358 218.451 244.197 218.818 252.023C230.648 252.023 242.492 252.023 254.322 252.023C257.339 234.482 256.282 216.59 251.206 199.359H191.76Z" fill="white"/>
<path d="M254.336 252.574H218.832C218.536 252.574 218.283 252.335 218.268 252.038L217.324 232.172L211.98 252.165C211.909 252.405 211.684 252.588 211.43 252.588H174.121C173.741 252.588 173.459 252.208 173.585 251.841L191.225 199.178C191.295 198.952 191.521 198.797 191.76 198.797H251.22C251.474 198.797 251.685 198.966 251.756 199.206C256.888 216.591 257.946 234.385 254.886 252.123C254.844 252.377 254.618 252.574 254.336 252.574ZM219.368 251.446H253.857C256.761 234.174 255.718 216.845 250.797 199.911H192.169L174.911 251.446H211.007L217.169 228.379C217.338 227.758 218.24 227.857 218.283 228.491L219.368 251.446Z" fill="#292C56"/>
<path d="M143.61 101.819C143.554 101.819 143.512 101.805 143.469 101.805L140.551 119.459C145.993 116.244 152.606 120.84 151.591 127.016C150.576 133.178 142.835 135.406 138.704 130.612L133.219 163.803L133.557 164.268L171.796 136.83C194.469 119.12 169.287 82.9959 143.61 101.819Z" fill="white"/>
<path d="M133.57 164.831C133.387 164.831 133.218 164.746 133.119 164.591C132.809 164.154 132.64 163.999 132.682 163.703L138.167 130.525C138.238 130.06 138.844 129.891 139.154 130.243C140.903 132.288 143.596 133.106 146.162 132.372C151.731 130.807 152.958 123.447 148.178 120.176C145.979 118.667 143.173 118.583 140.86 119.95C140.451 120.19 139.944 119.838 140.014 119.372L142.933 101.719C142.975 101.451 143.201 101.254 143.469 101.254C169.709 82.2329 195.286 119.189 172.162 137.265C133.711 164.873 133.867 164.831 133.57 164.831ZM139.098 131.794L133.881 163.35L171.485 136.363C193.425 119.203 169.145 83.8262 143.976 102.241L141.297 118.456C143.765 117.426 146.557 117.694 148.813 119.245C154.382 123.052 152.958 131.639 146.458 133.458C143.835 134.205 141.1 133.557 139.098 131.794Z" fill="#292C56"/>
<path d="M257.115 155.691C257.115 155.691 252.631 186.176 256.029 195.876C259.413 205.591 256.029 211.048 256.029 211.048L256.974 218.563C256.974 218.563 213.87 232.395 183.541 218.563L185.966 209.835C185.966 209.835 182.103 205.168 185.12 196.581C188.138 187.995 192.382 170.313 192.382 170.313L247.245 168.537L257.115 155.691Z" fill="#60AFBD"/>
<path d="M228.774 109.897C227.378 111.773 224.741 112.069 222.95 110.109C221.752 108.798 221.526 106.711 222.372 104.807C222.372 104.807 218.706 101.973 217.564 104.68C216.422 107.388 211.262 105.837 211.262 105.837L210.119 108.91C210.119 108.91 202.449 105.16 205.692 97.6022C208.935 90.0446 215.463 97.6868 219.707 93.1043C223.952 88.5218 229.197 98.4764 229.197 98.4764C229.197 98.4764 233.455 96.7421 235.838 101.198C238.221 105.639 230.762 112.153 230.762 112.153C230.762 112.153 230.325 110.391 228.774 109.897Z" fill="#292C56"/>
<path d="M213.714 125.59C215.237 126.591 216.76 127.578 218.283 128.579C220.384 127.112 222.485 125.646 224.585 124.18L224.36 127.775C226.87 127.733 229.379 127.691 231.889 127.648C226.193 135.911 220.511 144.188 214.814 152.45L205.367 128.593L213.531 128.325L213.714 125.59Z" fill="white"/>
<path d="M214.279 152.646L204.846 128.803C204.705 128.437 204.959 128.042 205.354 128.028L213.01 127.774L213.151 125.532C213.179 125.095 213.658 124.869 214.025 125.095L218.269 127.887L224.262 123.699C224.656 123.431 225.178 123.727 225.15 124.193L224.953 127.182L231.862 127.055C232.299 127.027 232.609 127.548 232.341 127.943L215.266 152.745C215.012 153.14 214.448 153.069 214.279 152.646ZM206.185 129.142L214.927 151.251L230.776 128.211L224.346 128.324C224.036 128.338 223.754 128.07 223.768 127.718L223.923 125.292L218.579 129.029C218.396 129.156 218.142 129.17 217.945 129.043L214.18 126.59L214.067 128.366C214.053 128.662 213.814 128.888 213.517 128.888L206.185 129.142Z" fill="#292C56"/>
<path d="M218.283 128.575L214.504 135.752L213.531 128.335L213.715 125.586L218.283 128.575Z" fill="white"/>
<path d="M213.941 135.824C212.954 128.309 212.954 128.38 212.968 128.295L213.151 125.545C213.179 125.108 213.659 124.883 214.025 125.108L218.594 128.098C218.833 128.253 218.918 128.577 218.791 128.831L215.012 136.008C214.744 136.501 214.011 136.36 213.941 135.824ZM214.096 128.309L214.829 133.907L217.536 128.76L214.194 126.589L214.096 128.309Z" fill="#292C56"/>
<path d="M218.283 128.577L221.174 135.233L224.346 127.774L224.586 124.164L218.283 128.577Z" fill="white"/>
<path d="M220.667 135.459L217.776 128.789C217.664 128.55 217.748 128.253 217.974 128.098L224.276 123.699C224.671 123.431 225.193 123.727 225.165 124.193C224.911 128.084 224.939 127.845 224.883 127.971L221.71 135.444C221.499 135.924 220.85 135.91 220.667 135.459ZM218.989 128.775L221.174 133.809L223.797 127.633L223.952 125.307L218.989 128.775Z" fill="#292C56"/>
<path d="M52.7494 82.625L65.4676 115.802C77.2693 119.229 89.0851 122.669 100.887 126.095C100.351 130.748 99.8152 135.415 99.2794 140.068C97.5169 140.379 58.3048 147.006 47.1094 131.312C45.6994 129.324 42.541 123.938 39.8338 117.452C37.0138 110.726 35.491 104.818 34.6309 100.645L52.7494 82.625Z" fill="white"/>
<path d="M79.1723 142.296C68.0333 142.296 53.1014 140.674 46.6577 131.65C45.2054 129.62 42.0611 124.234 39.3116 117.677C37.0274 112.234 35.279 106.552 34.0805 100.757C34.0241 100.447 34.2074 100.151 34.5176 100.094C34.8278 100.024 35.1239 100.221 35.1803 100.531C36.3647 106.242 38.099 111.868 40.3409 117.24C43.0481 123.712 46.1501 129.013 47.5601 131.002C58.0505 145.694 94.4567 140.293 98.7572 139.603L100.252 126.518L65.2838 116.366C65.1146 116.323 64.9736 116.197 64.9172 116.027L52.199 82.8501C52.0862 82.554 52.2272 82.2297 52.5233 82.1169C52.8194 82.0041 53.1437 82.1451 53.2565 82.4412L65.8901 115.336L101.041 125.545C101.309 125.615 101.478 125.883 101.45 126.151L99.8429 140.124C99.8147 140.378 99.6314 140.575 99.3776 140.618C98.9828 140.702 89.9306 142.296 79.1723 142.296Z" fill="#292C56"/>
<path d="M48.5179 76.0273C54.4681 82.5838 59.5018 100.237 59.5018 100.237L37.5481 111.376L33.1348 97.1209L48.5179 76.0273Z" fill="white"/>
<path d="M37.534 111.939C37.2802 111.939 37.0687 111.77 36.9982 111.544L32.5849 97.2892C32.4862 96.9931 32.6554 96.6688 32.9515 96.5842C33.2476 96.4996 33.5578 96.6547 33.6565 96.9508L37.8724 110.571L58.8109 99.9541C57.979 97.1764 53.3542 82.2163 48.0808 76.4071C47.8693 76.1815 47.8834 75.8149 48.1231 75.6175C48.3487 75.406 48.7153 75.4201 48.9127 75.6598C54.877 82.2304 59.812 99.376 60.0235 100.095C60.094 100.349 59.9812 100.631 59.7415 100.758C37.5763 111.995 37.7455 111.939 37.534 111.939Z" fill="#292C56"/>
<path d="M94.7817 124.391C96.8121 124.955 98.8566 125.533 100.887 126.097C100.887 126.097 109.333 126.083 111.941 126.647C114.536 127.211 121.558 131.976 121.304 134.275C121.05 136.573 115.41 132.71 115.41 132.71C115.41 132.71 122.122 136.869 120.697 138.519C119.273 140.154 113.76 136.347 113.76 136.347C113.76 136.347 119.527 140.084 118.611 141.734C117.694 143.369 111.42 138.956 111.42 138.956C111.42 138.956 115.664 142.721 114.536 144.85C113.408 146.979 108.163 140.563 108.163 140.563C108.163 140.563 102.523 144.032 99.2796 140.084C97.4325 140.338 95.5854 140.606 93.7383 140.859L94.7817 124.391Z" fill="white"/>
<path d="M113.859 145.836C112.083 145.836 109.122 142.551 108.036 141.268C106.626 142.001 102.043 143.947 99.0682 140.676L93.8371 141.409C93.5269 141.451 93.2449 141.24 93.2026 140.929C93.1603 140.619 93.3718 140.337 93.682 140.295L99.2233 139.519C99.4207 139.491 99.6181 139.562 99.7309 139.717C100.929 141.169 102.636 141.691 104.821 141.24C106.527 140.901 107.881 140.069 107.895 140.069C108.135 139.914 108.445 139.971 108.628 140.196C110.461 142.438 112.971 144.793 113.901 144.708C113.944 144.708 114 144.694 114.071 144.581C114.818 143.171 112.097 140.281 111.081 139.378C110.856 139.181 110.828 138.843 111.011 138.603C111.194 138.363 111.533 138.321 111.772 138.49C113.76 139.886 117.018 141.747 118.047 141.522C118.131 141.507 118.146 141.479 118.16 141.465C118.484 140.887 116.566 138.941 114.057 137.207C113.803 137.038 113.605 136.911 113.478 136.826C113.225 136.657 113.154 136.305 113.337 136.051C113.507 135.797 113.859 135.726 114.113 135.896C114.268 135.994 114.465 136.121 114.691 136.276C116.75 137.602 119.64 138.955 120.317 138.166C120.359 138.123 120.387 138.067 120.373 137.926C120.218 136.911 117.948 135.078 116.087 133.823C115.692 133.569 115.354 133.358 115.128 133.203C114.874 133.033 114.804 132.681 114.973 132.427C115.142 132.173 115.481 132.089 115.749 132.258C115.932 132.371 116.256 132.568 116.665 132.85C118.343 133.879 120.162 134.669 120.698 134.429C120.726 134.415 120.768 134.401 120.782 134.232C120.98 132.526 114.621 127.816 111.857 127.224C109.291 126.674 100.563 126.688 100.929 126.688C100.803 126.688 100.929 126.702 94.669 124.954C94.3729 124.869 94.1896 124.559 94.2742 124.263C94.3588 123.967 94.669 123.784 94.9651 123.868L101 125.56C101.931 125.56 109.573 125.574 112.097 126.11C114.649 126.66 122.22 131.553 121.896 134.359C121.812 135.162 121.219 135.712 120.063 135.557C121.022 136.53 122.051 137.884 121.163 138.913C120.528 139.646 119.429 139.618 118.244 139.28C119.09 140.253 119.584 141.24 119.147 142.029C118.357 143.439 115.791 142.198 114.367 141.437C116.157 144.229 115.029 145.836 113.859 145.836Z" fill="#292C56"/>
<path d="M163.589 143.016C163.589 143.016 162.221 144.863 160.135 144.257C158.048 143.65 154.283 139.998 152.944 141.493C151.604 143.002 155.947 146.541 155.947 146.541C155.947 146.541 150.941 143.439 150.124 144.821C149.306 146.217 153.395 149.445 153.395 149.445C153.395 149.445 148.53 146.583 148.093 148.12C147.656 149.657 151.082 152.153 151.082 152.153C151.082 152.153 146.881 150.094 147.05 151.744C147.219 153.393 151.421 157.327 153.113 157.891C154.805 158.455 155.143 155.72 155.143 155.72C155.143 155.72 158.217 155.523 157.921 152.829C157.921 152.829 161.545 152.28 160.713 149.488C160.713 149.516 166.381 150.461 163.589 143.016Z" fill="white"/>
<path d="M152.93 158.47C150.914 157.794 144.837 152.252 146.909 150.8C147.29 150.532 147.91 150.532 148.573 150.673C147.854 149.827 147.304 148.854 147.544 147.994C147.882 146.81 149.335 147.078 150.505 147.472C149.701 146.471 149.151 145.372 149.631 144.554C150.265 143.482 151.957 144.004 153.113 144.469C152.338 143.44 151.661 142.1 152.521 141.127C154.298 139.139 158.175 143.101 160.29 143.722C161.968 144.215 163.096 142.749 163.138 142.693C163.406 142.326 163.97 142.425 164.111 142.834C165.169 145.654 165.183 147.712 164.168 148.953C163.378 149.926 162.166 150.123 161.39 150.137C161.503 151.843 160.135 152.887 158.5 153.324C158.457 154.974 157.231 155.961 155.623 156.271C155.285 157.78 154.368 158.95 152.93 158.47ZM147.6 151.702C147.812 153.225 151.774 156.891 153.283 157.399C153.565 157.498 153.72 157.427 153.818 157.371C154.255 157.103 154.509 156.2 154.58 155.693C154.608 155.425 154.834 155.213 155.101 155.199C155.116 155.199 156.37 155.101 157.005 154.339C157.315 153.973 157.428 153.521 157.357 152.929C157.329 152.633 157.541 152.351 157.837 152.309C157.851 152.309 159.458 152.055 160.051 151.096C160.304 150.701 160.333 150.236 160.177 149.686C160.065 149.291 160.403 148.897 160.812 148.967C160.826 148.967 162.49 149.221 163.322 148.22C163.97 147.43 163.984 146.006 163.364 144.046C162.673 144.61 161.503 145.231 159.994 144.793C158.091 144.244 154.241 140.902 153.381 141.875C153.325 141.945 153.254 142.044 153.268 142.27C153.353 143.327 155.186 145.188 156.314 146.119C156.54 146.302 156.582 146.641 156.413 146.88C156.244 147.12 155.905 147.19 155.651 147.035C154.129 146.091 151.576 144.864 150.716 145.075C150.632 145.104 150.618 145.118 150.604 145.132C150.307 145.639 151.802 147.501 153.734 149.038C153.959 149.221 154.016 149.559 153.847 149.799C153.677 150.039 153.353 150.109 153.099 149.968C151.168 148.826 148.996 148.022 148.63 148.304C148.404 149.094 150.152 150.814 151.407 151.731C151.647 151.9 151.703 152.224 151.562 152.478C151.407 152.732 151.097 152.816 150.829 152.689C149.49 152.041 148.009 151.59 147.6 151.702Z" fill="#292C56"/>
<path d="M186.247 165.255C185.979 165.255 185.74 165.072 185.697 164.79C182.934 150.224 184.837 137.196 184.851 137.055C184.894 136.745 185.19 136.533 185.486 136.576C185.796 136.618 186.007 136.914 185.965 137.21C185.951 137.337 184.076 150.196 186.811 164.564C186.868 164.931 186.6 165.255 186.247 165.255Z" fill="#292C56"/>
<path d="M163.081 145.273L178.239 153.339L167.847 169.807L152.422 155.693L163.081 145.273Z" fill="white"/>
<path d="M167.466 170.214L152.041 156.114C151.801 155.903 151.787 155.522 152.026 155.296L162.686 144.876C162.855 144.707 163.123 144.665 163.349 144.778L178.52 152.843C178.816 152.998 178.901 153.365 178.732 153.647L168.34 170.115C168.143 170.397 167.72 170.454 167.466 170.214ZM153.239 155.677L167.734 168.917L177.449 153.534L163.18 145.948L153.239 155.677Z" fill="#292C56"/>
<path d="M241.335 132.793C231.282 142.494 221.228 152.209 211.175 161.909C197.16 157.228 183.158 152.547 169.143 147.866C167.127 156.1 165.096 164.335 163.08 172.569C167.155 176.686 173.345 182.228 181.805 187.388C182.876 188.037 193.325 194.354 200.093 196.003C215.617 199.768 235.991 184.864 252.093 162.079L241.335 132.793Z" fill="#60AFBD"/>
<path d="M163.421 143.114C163.421 143.114 161.87 145.201 159.516 144.51C157.147 143.819 152.903 139.688 151.38 141.394C149.871 143.1 154.778 147.104 154.778 147.104C154.778 147.104 149.11 143.594 148.193 145.159C147.263 146.724 151.888 150.39 151.888 150.39C151.888 150.39 146.389 147.147 145.895 148.895C145.402 150.644 149.279 153.449 149.279 153.449C149.279 153.449 144.527 151.123 144.725 152.998C144.922 154.874 149.66 159.315 151.577 159.95C153.495 160.584 153.876 157.496 153.876 157.496C153.876 157.496 157.358 157.271 157.02 154.225C157.02 154.225 161.123 153.605 160.178 150.446C160.178 150.474 166.594 151.546 163.421 143.114Z" fill="white"/>
<path d="M151.393 160.513C149.109 159.752 142.355 153.548 144.611 151.982C145.062 151.658 145.838 151.7 146.641 151.884C145.767 150.911 145.076 149.769 145.358 148.768C145.739 147.414 147.53 147.837 148.855 148.316C147.868 147.146 147.149 145.849 147.713 144.89C148.432 143.663 150.477 144.354 151.802 144.918C150.871 143.748 149.969 142.141 150.97 141.027C152.916 138.827 157.287 143.283 159.684 143.974C161.63 144.538 162.927 142.846 162.983 142.775C163.251 142.409 163.815 142.507 163.956 142.916C165.141 146.075 165.169 148.387 164.027 149.769C163.124 150.869 161.728 151.08 160.854 151.08C161.023 153.026 159.472 154.21 157.583 154.704C157.569 156.579 156.173 157.693 154.34 158.031C154.002 159.695 153.015 161.049 151.393 160.513ZM145.274 152.885C145.274 152.899 145.274 152.913 145.274 152.955C145.443 154.549 149.955 158.835 151.746 159.427C152.098 159.54 152.295 159.455 152.408 159.385C152.986 159.018 153.24 157.834 153.297 157.439C153.325 157.171 153.55 156.96 153.818 156.946C153.832 156.946 155.271 156.833 156.018 155.945C156.37 155.522 156.511 154.986 156.441 154.309C156.413 154.013 156.624 153.731 156.92 153.689C156.934 153.689 158.781 153.392 159.472 152.293C159.768 151.827 159.811 151.292 159.613 150.629C159.501 150.234 159.825 149.853 160.248 149.91C160.262 149.91 162.194 150.206 163.152 149.036C163.914 148.105 163.914 146.427 163.181 144.157C162.419 144.791 161.08 145.553 159.345 145.059C157.118 144.411 152.845 140.59 151.788 141.774C150.914 142.761 154.016 145.764 155.115 146.681C155.341 146.864 155.383 147.203 155.214 147.442C155.045 147.682 154.707 147.752 154.453 147.597C152.831 146.596 149.87 145.102 148.813 145.37C148.686 145.398 148.658 145.454 148.644 145.468C148.249 146.145 150.209 148.387 152.211 149.966C152.436 150.149 152.493 150.488 152.324 150.728C152.154 150.967 151.83 151.038 151.576 150.897C149.659 149.769 147.163 148.725 146.472 149.007C146.416 149.021 146.416 149.036 146.416 149.078C146.148 150.008 148.15 151.982 149.588 153.026C149.828 153.195 149.884 153.519 149.743 153.773C149.588 154.027 149.278 154.112 149.01 153.985C147.417 153.195 145.654 152.673 145.274 152.885Z" fill="#292C56"/>
<path d="M208.639 163.036L173.164 149.811C172.868 149.698 172.727 149.374 172.84 149.092C172.952 148.795 173.277 148.654 173.559 148.767L208.583 161.866C221.259 154.182 232.13 144.283 240.886 132.468C241.069 132.214 241.422 132.172 241.676 132.355C241.93 132.538 241.972 132.891 241.789 133.144C232.891 145.158 221.837 155.183 208.921 162.98C208.837 163.008 208.738 163.036 208.639 163.036Z" fill="#292C56"/>
<path d="M181.792 187.951C181.665 187.951 181.552 187.909 181.44 187.824L162.715 173.005C162.546 172.864 162.461 172.638 162.517 172.427L163.8 167.21C163.871 166.914 164.181 166.716 164.477 166.801C164.773 166.871 164.971 167.182 164.886 167.478L163.688 172.342L182.13 186.936C182.568 187.288 182.328 187.951 181.792 187.951Z" fill="#292C56"/>
<path d="M207.383 195.78C200.784 195.78 193.353 193.961 186.867 190.704C186.585 190.563 186.472 190.225 186.613 189.943C186.754 189.661 187.093 189.548 187.375 189.689C194.791 193.411 203.477 195.202 210.598 194.483C215.363 194.003 218.818 192.622 220.679 191.874C232.819 187.024 243.718 175.166 247.836 170.287C248.033 170.047 248.386 170.019 248.625 170.217C248.865 170.414 248.893 170.767 248.696 171.006C244.522 175.941 233.468 187.969 221.102 192.918C216.618 194.737 212.416 195.78 207.383 195.78Z" fill="#292C56"/>
<path d="M210.456 181.693C210.09 181.693 209.822 181.355 209.906 181.002C211.443 174.742 210.823 168.425 208.13 162.729C208.003 162.447 208.116 162.108 208.398 161.981C208.68 161.855 209.018 161.967 209.145 162.249C211.951 168.171 212.6 174.756 211.006 181.27C210.95 181.524 210.71 181.693 210.456 181.693Z" fill="#292C56"/>
<path d="M185.824 210.388C185.528 210.318 185.345 210.008 185.415 209.697C185.486 209.401 185.796 209.218 186.106 209.289C209.23 215.196 232.721 215.591 255.901 210.501C256.197 210.431 256.508 210.628 256.578 210.924C256.649 211.234 256.451 211.53 256.155 211.601C232.989 216.705 209.329 216.395 185.824 210.388Z" fill="#292C56"/>
<path d="M43.9922 195.949C43.7666 195.949 43.5692 195.822 43.4705 195.611C39.7199 186.869 34.3055 153.931 34.0658 152.535C34.0094 152.183 34.2914 151.859 34.658 151.887C37.9433 152.084 40.5659 151.281 42.4694 149.504C45.656 146.529 45.7406 141.777 45.7406 141.721C45.7406 141.411 46.0226 141.143 46.3046 141.157C46.6148 141.157 46.8686 141.411 46.8686 141.721C46.8686 141.932 46.784 146.994 43.2449 150.308C41.2568 152.169 38.5637 153.085 35.2925 153.029C36.1103 157.879 41.0876 187.221 44.4998 195.16C44.669 195.54 44.4011 195.949 43.9922 195.949Z" fill="#292C56"/>
<path d="M131.061 40.7491C130.553 38.9584 130.934 36.7729 133.021 36.2794C135.023 35.8 136.912 37.2664 137.589 39.0571C138.139 40.4812 138.04 42.286 138.435 43.837C142.369 36.4768 147.657 36.3922 148.855 39.2968C149.715 41.3554 148.108 43.3999 146.796 44.8381C144.583 47.2774 142.355 49.7167 140.141 52.156C139.831 52.5085 139.197 52.7341 138.788 52.3393C137.067 50.6755 135.516 48.8707 134.191 46.8826C132.964 45.0214 131.681 42.9205 131.061 40.7491Z" fill="#DCE7EA"/>
<path d="M136.192 82.7524C136.164 81.6244 136.714 80.4118 138.011 80.4259C139.252 80.44 140.14 81.5821 140.267 82.7383C140.366 83.6548 140.056 84.6982 140.056 85.657C143.454 81.9346 146.556 82.6819 146.824 84.5572C147.021 85.8967 145.766 86.8414 144.793 87.49C143.13 88.5898 141.466 89.6755 139.802 90.7753C139.562 90.9304 139.168 90.9727 138.984 90.6907C138.223 89.464 137.588 88.1809 137.109 86.8132C136.672 85.5301 136.235 84.106 136.192 82.7524Z" fill="#DCE7EA"/>
<path d="M121.037 62.084C120.332 60.8855 120.191 59.2358 121.601 58.4744C122.954 57.7412 124.604 58.4462 125.436 59.6165C126.099 60.5471 126.381 61.8725 126.959 62.9159C128.411 56.8388 132.218 55.7672 133.642 57.6425C134.657 58.9679 133.882 60.7586 133.205 62.0417C132.063 64.2272 130.921 66.4127 129.779 68.6123C129.61 68.9225 129.201 69.2045 128.834 69.0071C127.269 68.1329 125.803 67.1177 124.463 65.9333C123.236 64.8053 121.897 63.5363 121.037 62.084Z" fill="#DCE7EA"/>
<path d="M57.6407 124.729C57.3164 124.729 57.0626 124.447 57.0767 124.123C57.4856 117.919 64.9727 115.367 65.2829 115.268C65.579 115.169 65.9033 115.324 66.002 115.62C66.1007 115.917 65.9456 116.241 65.6495 116.34C65.579 116.368 58.5713 118.765 58.2188 124.207C58.1906 124.503 57.9368 124.729 57.6407 124.729Z" fill="#292C56"/>
</g>
</svg>
